<?xml version="1.0" encoding="UTF-8"?>
<svg id="Layer_1" xmlns="http://www.w3.org/2000/svg" version="1.1" viewBox="0 0 150 150">
  <!-- Generator: Adobe Illustrator 30.2.1, SVG Export Plug-In . SVG Version: 2.1.1 Build 1)  -->
  <path d="M144.601,1.304H5.397c-2.261,0-4.094,1.833-4.094,4.094v114.639c0,2.261,1.833,4.094,4.094,4.094h12.283v20.471c0,2.261,1.833,4.094,4.094,4.094h106.45c2.261,0,4.094-1.833,4.094-4.094v-20.471h12.283c2.261,0,4.094-1.833,4.094-4.094V5.398c0-2.261-1.833-4.094-4.094-4.094ZM79.093,124.131v16.377h-8.188v-16.377h8.188ZM62.716,140.508h-8.188v-16.377h8.188v16.377ZM87.282,140.508v-16.377h8.188v16.377h-8.188ZM140.507,115.942h-12.283c-2.261,0-4.094,1.833-4.094,4.094v20.471h-20.471v-20.471c0-2.261-1.833-4.094-4.094-4.094h-49.131c-2.261,0-4.094,1.833-4.094,4.094v20.471h-20.471v-20.471c0-2.261-1.833-4.094-4.094-4.094h-12.283V9.492h131.016v106.45Z" style="fill: #fff;"/>
  <path d="M21.774,107.754h106.45c2.261,0,4.094-1.833,4.094-4.094V21.775c0-2.261-1.833-4.094-4.094-4.094H21.774c-2.261,0-4.094,1.833-4.094,4.094v81.885c0,2.261,1.833,4.094,4.094,4.094ZM25.868,25.869h98.262v73.696H25.868V25.869Z" style="fill: #fff;"/>
</svg>