<?xml version="1.0" encoding="UTF-8"?>
<svg id="Layer_1" xmlns="http://www.w3.org/2000/svg" version="1.1" viewBox="0 0 150 150">
  <!-- Generator: Adobe Illustrator 30.2.1, SVG Export Plug-In . SVG Version: 2.1.1 Build 1)  -->
  <path d="M40.096,126.654h69.809c2.144,0,3.889-1.745,3.889-3.889s-1.745-3.889-3.889-3.889H40.096c-2.144,0-3.889,1.745-3.889,3.889s1.745,3.889,3.889,3.889ZM40.096,111.958h69.809c2.144,0,3.889-1.745,3.889-3.889s-1.745-3.893-3.889-3.893H40.096c-2.144,0-3.889,1.745-3.889,3.893s1.745,3.889,3.889,3.889ZM40.096,97.261h69.809c2.144,0,3.889-1.745,3.889-3.889s-1.745-3.891-3.889-3.891H40.096c-2.144,0-3.889,1.745-3.889,3.891s1.745,3.889,3.889,3.889ZM98.881,12.325h-14.695c-2.146,0-3.891,1.745-3.891,3.891v25.719c0,2.144,1.745,3.889,3.891,3.889h14.695c2.146,0,3.891-1.745,3.891-3.889v-25.719c0-2.146-1.745-3.891-3.891-3.891ZM94.992,38.044h-6.918v-17.939h6.918v17.939ZM146.479,30.756L119.245,3.523c-1.433-1.431-3.333-2.219-5.35-2.219H8.865C4.695,1.304,1.303,4.696,1.303,8.866v132.27c0,4.168,3.393,7.56,7.562,7.56h132.268c4.172,0,7.565-3.393,7.565-7.56V36.106c0-2.02-.788-3.92-2.219-5.35ZM43.986,9.083h62.027v39.984h-62.027V9.083ZM120.711,140.919H29.289v-58.356h91.422v58.356ZM140.918,140.919h-12.428v-58.57c0-4.17-3.393-7.562-7.565-7.562H29.074c-4.172,0-7.565,3.393-7.565,7.562v58.57h-12.428V9.083h27.125v40.199c0,4.172,3.393,7.565,7.562,7.565h62.461c4.17,0,7.562-3.393,7.562-7.565V9.07l27.125,27.036v104.813Z" style="fill: #fff;"/>
</svg>