<?xml version="1.0" encoding="UTF-8"?>
<svg id="Layer_1" xmlns="http://www.w3.org/2000/svg" version="1.1" viewBox="0 0 150 150">
  <!-- Generator: Adobe Illustrator 30.2.1, SVG Export Plug-In . SVG Version: 2.1.1 Build 1)  -->
  <path d="M148.785,110.131l-18.587-14.891v-57.57c0-8.618-8.618-17.235-17.176-17.235H18.167C9.551,20.435.933,29.053.933,37.67v60.323c0,8.618,8.618,17.235,17.235,17.235h94.796c.265,0,.528-.025.793-.037l18.868,15.115,16.161-20.177ZM31.095,89.376c-4.309,0-4.309-2.154-4.309-4.309v-34.443c0-2.183,0-4.337,4.34-4.337h68.939c4.28,0,4.28,2.155,4.28,4.299v23.942l-11.044-8.848-16.163,20.177,4.392,3.519H31.095Z" style="fill: #231f20; fill-rule: evenodd;"/>
</svg>